<svg width="44" height="45" viewBox="0 0 44 45" fill="none" xmlns="http://www.w3.org/2000/svg">
<path d="M18.0598 20.9865C18.4336 20.7158 18.6141 20.2689 18.6141 19.6545C18.627 19.3623 18.5668 19.0744 18.4379 18.8123C18.3219 18.6018 18.15 18.4256 17.9395 18.301C17.7211 18.1686 17.4787 18.0809 17.2262 18.0432C16.9512 17.9916 16.6719 17.9658 16.3969 17.9701H13.3762V21.3947H16.6461C17.209 21.399 17.6859 21.2615 18.0598 20.9865ZM18.5668 24.0803C18.1457 23.758 17.5828 23.599 16.8824 23.599H13.3676V27.6381H16.8137C17.1359 27.6381 17.4324 27.608 17.7203 27.5479C17.9927 27.4946 18.2523 27.3896 18.4852 27.2385C18.7043 27.0967 18.8805 26.9033 19.0137 26.6541C19.1426 26.4049 19.207 26.0869 19.207 25.7045C19.207 24.9439 18.9922 24.4068 18.5668 24.0803ZM22 3.52832C11.3695 3.52832 2.75 12.1479 2.75 22.7783C2.75 33.4088 11.3695 42.0283 22 42.0283C32.6305 42.0283 41.25 33.4088 41.25 22.7783C41.25 12.1479 32.6305 3.52832 22 3.52832ZM25.7168 15.8561H31.6637V17.3041H25.7168V15.8561ZM22 27.7971C21.7218 28.3251 21.3247 28.7811 20.8398 29.1291C20.3328 29.4814 19.7699 29.7393 19.1727 29.8896C18.5478 30.0571 17.9032 30.1395 17.2563 30.1346H10.1406V15.4779H17.0586C17.759 15.4779 18.3949 15.5424 18.975 15.6627C19.5508 15.783 20.0406 15.9893 20.4531 16.2686C20.8613 16.5479 21.1836 16.9217 21.4113 17.3857C21.6348 17.8455 21.7508 18.4213 21.7508 19.1045C21.7508 19.8436 21.5832 20.4537 21.248 20.9479C20.9086 21.442 20.4188 21.8416 19.7527 22.1553C20.6594 22.4131 21.3254 22.8729 21.7637 23.5174C22.2105 24.1705 22.4297 24.9525 22.4297 25.8721C22.4297 26.6197 22.2879 27.26 22 27.7971ZM33.9797 25.5283H26.3141C26.3141 26.3619 26.602 27.1611 27.0359 27.5908C27.4742 28.0162 28.1016 28.2311 28.9223 28.2311C29.5152 28.2311 30.018 28.0807 30.4477 27.7842C30.873 27.4877 31.1309 27.174 31.2254 26.8475H33.7949C33.3824 28.1236 32.7551 29.0346 31.9043 29.5846C31.0621 30.1346 30.0309 30.4096 28.832 30.4096C27.9941 30.4096 27.2422 30.2721 26.5676 30.01C25.9187 29.7564 25.3344 29.3697 24.8531 28.8713C24.3786 28.3594 24.0119 27.7574 23.7746 27.101C23.5125 26.3748 23.3836 25.61 23.3922 24.8408C23.3922 24.0459 23.5254 23.3068 23.7832 22.6193C24.2773 21.283 25.3043 20.2131 26.6148 19.6588C27.3152 19.3666 28.0672 19.2205 28.8277 19.2291C29.7301 19.2291 30.5121 19.401 31.191 19.7533C31.8446 20.0898 32.4121 20.572 32.8496 21.1627C33.2836 21.7514 33.5887 22.4217 33.782 23.1779C33.9668 23.9213 34.0312 24.7033 33.9797 25.5283ZM28.7375 21.4205C28.2734 21.4205 27.8824 21.5021 27.5816 21.6611C27.2809 21.8201 27.0316 22.0178 26.8426 22.2455C26.6625 22.4654 26.5294 22.7198 26.4516 22.9932C26.3828 23.2209 26.3355 23.4529 26.3184 23.6893H31.0664C30.9977 22.9459 30.7398 22.3959 30.3961 22.0092C30.0352 21.6268 29.4551 21.4205 28.7375 21.4205Z" fill="#00262F"/>
</svg>
