<svg width="110" height="108" viewBox="0 0 110 108" fill="none" xmlns="http://www.w3.org/2000/svg">
<path d="M89.875 1.4978H20.125C9.2752 1.4978 0.5 10.246 0.5 21.0683V87.9273C0.5 98.7496 9.2752 107.498 20.125 107.498H89.875C100.725 107.498 109.5 98.7496 109.5 87.9273V21.0683C109.5 10.246 100.725 1.4978 89.875 1.4978Z" fill="#1D1B1B" stroke="#E5FAFF"/>
<g clip-path="url(#clip0_455_8902)">
<path d="M42.7116 90.4189C49.3038 90.4189 54.6539 85.1062 54.6539 78.5603V66.7018H42.7116C36.1194 66.7018 30.7693 72.0144 30.7693 78.5603C30.7693 85.1062 36.1194 90.4189 42.7116 90.4189Z" fill="#0ACF83"/>
<path d="M30.7693 54.8432C30.7693 48.2973 36.1194 42.9846 42.7116 42.9846H54.6539V66.7017H42.7116C36.1194 66.7017 30.7693 61.3891 30.7693 54.8432Z" fill="#A259FF"/>
<path d="M30.7693 31.1261C30.7693 24.5802 36.1194 19.2676 42.7116 19.2676H54.6539V42.9847H42.7116C36.1194 42.9847 30.7693 37.6721 30.7693 31.1261Z" fill="#F24E1E"/>
<path d="M54.6538 19.2676H66.5961C73.1883 19.2676 78.5384 24.5802 78.5384 31.1261C78.5384 37.6721 73.1883 42.9847 66.5961 42.9847H54.6538V19.2676Z" fill="#FF7262"/>
<path d="M78.5384 54.8432C78.5384 61.3891 73.1883 66.7017 66.5961 66.7017C60.004 66.7017 54.6538 61.3891 54.6538 54.8432C54.6538 48.2973 60.004 42.9846 66.5961 42.9846C73.1883 42.9846 78.5384 48.2973 78.5384 54.8432Z" fill="#1ABCFE"/>
</g>
<defs>
<clipPath id="clip0_455_8902">
<rect width="47.7692" height="71.1513" fill="white" transform="translate(30.7693 19.2676)"/>
</clipPath>
</defs>
</svg>
