<svg width="112" height="110" viewBox="0 0 112 110" fill="none" xmlns="http://www.w3.org/2000/svg">
<path d="M91.5208 1.4978H20.4792C9.43329 1.4978 0.5 10.4086 0.5 21.4316V89.564C0.5 100.587 9.43329 109.498 20.4792 109.498H91.5208C102.567 109.498 111.5 100.587 111.5 89.564V21.4316C111.5 10.4086 102.567 1.4978 91.5208 1.4978Z" fill="#001E36" stroke="#E5FAFF"/>
<path d="M25.75 77.035V29.9824C25.75 29.6623 25.8875 29.4794 26.2083 29.4794C26.9875 29.4794 27.7208 29.4794 28.775 29.4337C29.875 29.388 31.0208 29.388 32.2583 29.3423C33.4958 29.2965 34.825 29.2965 36.2458 29.2508C37.6667 29.2051 39.0417 29.2051 40.4167 29.2051C44.175 29.2051 47.2917 29.6623 49.8583 30.6226C52.15 31.3999 54.2583 32.6803 56 34.3722C57.4667 35.8354 58.6125 37.6188 59.3458 39.585C60.0333 41.5055 60.4 43.4717 60.4 45.5294C60.4 49.4619 59.4833 52.7085 57.65 55.2692C55.8167 57.8299 53.25 59.7504 50.2708 60.8478C47.1542 61.991 43.7167 62.4025 39.9583 62.4025C38.8583 62.4025 38.125 62.4025 37.6667 62.3568C37.2083 62.3111 36.5667 62.3111 35.6958 62.3111V76.9893C35.7417 77.3093 35.5125 77.5837 35.1917 77.6294C35.1458 77.6294 35.1 77.6294 35.0083 77.6294H26.3C25.9333 77.6294 25.75 77.4465 25.75 77.035ZM35.7417 38.3047V53.6688C36.3833 53.7145 36.9792 53.7602 37.5292 53.7602H39.9583C41.7458 53.7602 43.5333 53.4858 45.2292 52.9371C46.6958 52.5256 47.9792 51.6568 48.9875 50.5136C49.95 49.3705 50.4083 47.8158 50.4083 45.8038C50.4542 44.3863 50.0875 42.9688 49.3542 41.7341C48.575 40.5452 47.475 39.6307 46.1458 39.1277C44.45 38.4418 42.6167 38.1675 40.7375 38.2132C39.5458 38.2132 38.4917 38.2132 37.6208 38.2589C36.7042 38.2132 36.0625 38.2589 35.7417 38.3047Z" fill="#31A8FF"/>
<path d="M89 50.8795C87.625 50.1479 86.1583 49.6449 84.6 49.3248C82.9042 48.959 81.2083 48.7303 79.4667 48.7303C78.55 48.6846 77.5875 48.8218 76.7167 49.0504C76.1208 49.1876 75.6167 49.5077 75.2958 49.9649C75.0667 50.3308 74.9292 50.788 74.9292 51.1996C74.9292 51.6111 75.1125 52.0226 75.3875 52.3884C75.8 52.8914 76.35 53.303 76.9458 53.6231C78 54.1718 79.1 54.6748 80.2 55.132C82.675 55.9551 85.0583 57.0983 87.2583 58.4701C88.7708 59.4303 90.0084 60.7107 90.8792 62.2654C91.6125 63.7286 91.9792 65.3291 91.9333 66.9752C91.9792 69.1244 91.3375 71.2735 90.1458 73.0568C88.8625 74.8859 87.075 76.3034 85.0125 77.1265C82.7667 78.0867 80.0167 78.5897 76.7167 78.5897C74.6083 78.5897 72.5458 78.4068 70.4833 77.9953C68.8792 77.7209 67.275 77.2179 65.8083 76.532C65.4875 76.3491 65.2583 76.0291 65.3042 75.6632V67.7068C65.3042 67.5696 65.35 67.3867 65.4875 67.2953C65.625 67.2038 65.7625 67.2496 65.9 67.341C67.6875 68.3927 69.5667 69.1244 71.5833 69.5816C73.325 70.0389 75.1583 70.2675 76.9917 70.2675C78.7333 70.2675 79.9708 70.0389 80.7958 69.6273C81.5292 69.3073 82.0333 68.5299 82.0333 67.7068C82.0333 67.0667 81.6667 66.4722 80.9333 65.8778C80.2 65.2833 78.6875 64.5974 76.4417 63.7286C74.1042 62.9055 71.95 61.8081 69.9333 60.4363C68.5125 59.4303 67.3208 58.1043 66.45 56.5496C65.7167 55.0863 65.35 53.4859 65.3958 51.8855C65.3958 49.9192 65.9458 48.0444 66.9542 46.3526C68.1 44.5235 69.7958 43.0602 71.7667 42.1457C73.9208 41.0483 76.625 40.5453 79.8792 40.5453C81.7583 40.5453 83.6833 40.6825 85.5625 40.9568C86.9375 41.1397 88.2667 41.5055 89.5042 42.0085C89.6875 42.0543 89.8708 42.2372 89.9625 42.4201C90.0084 42.603 90.0542 42.7859 90.0542 42.9688V50.4222C90.0542 50.6051 89.9625 50.788 89.825 50.8795C89.4125 50.9709 89.1833 50.9709 89 50.8795Z" fill="#31A8FF"/>
</svg>
