<svg width="44" height="45" viewBox="0 0 44 45" fill="none" xmlns="http://www.w3.org/2000/svg">
<path d="M22 5C12.0595 5 4 13.0595 4 23C4 32.9405 12.0595 41 22 41C31.9405 41 40 32.9405 40 23C40 13.0595 31.9405 5 22 5ZM30.841 17.3315L27.886 31.2515C27.6685 32.2385 27.0805 32.4785 26.26 32.0135L21.76 28.6985L19.591 30.7895C19.4847 30.9271 19.3484 31.0385 19.1923 31.1152C19.0363 31.1919 18.8648 31.2319 18.691 31.232H18.6835L19.003 26.651L27.343 19.118C27.703 18.7985 27.262 18.617 26.7835 18.9365L16.48 25.4255L12.04 24.0395C11.08 23.735 11.053 23.0795 12.2425 22.6085L29.5915 15.9215C30.3985 15.6275 31.1005 16.1135 30.8395 17.333L30.841 17.3315Z" fill="#00262F"/>
</svg>
