<svg width="110" height="108" viewBox="0 0 110 108" fill="none" xmlns="http://www.w3.org/2000/svg">
<path d="M89.875 1.4978H20.125C9.2752 1.4978 0.5 10.246 0.5 21.0683V87.9273C0.5 98.7496 9.2752 107.498 20.125 107.498H89.875C100.725 107.498 109.5 98.7496 109.5 87.9273V21.0683C109.5 10.246 100.725 1.4978 89.875 1.4978Z" fill="#1D1B1B" stroke="#E5FAFF"/>
<path d="M57.0425 47.6371L52.4049 46.0176V72.5922H57.0425V47.6371Z" fill="white"/>
<path d="M42.3197 46.1648H38.4182C37.8292 36.9631 43.9393 35.7117 48.3561 36.5215C52.7729 37.3312 53.141 38.8771 60.2079 41.5272C65.8614 43.6473 66.8331 39.0734 66.6123 36.5215L70.5137 36.5214C71.1026 45.7231 64.9927 46.9746 60.5759 46.1648C56.1591 45.3551 55.791 43.8092 48.7241 41.1591C43.0706 39.039 42.0988 43.6129 42.3197 46.1648Z" fill="white"/>
<path fill-rule="evenodd" clip-rule="evenodd" d="M54.5 90.0533C74.1367 90.0533 90.0555 74.1345 90.0555 54.4978C90.0555 34.8611 74.1367 18.9424 54.5 18.9424C34.8633 18.9424 18.9446 34.8611 18.9446 54.4978C18.9446 74.1345 34.8633 90.0533 54.5 90.0533ZM54.5 92.9978C75.763 92.9978 93 75.7608 93 54.4978C93 33.2348 75.763 15.9978 54.5 15.9978C33.237 15.9978 16 33.2348 16 54.4978C16 75.7608 33.237 92.9978 54.5 92.9978Z" fill="white"/>
</svg>
