<svg width="44" height="45" viewBox="0 0 44 45" fill="none" xmlns="http://www.w3.org/2000/svg">
<path d="M22 5C12.0588 5 4 13.0588 4 23C4 32.9412 12.0588 41 22 41C31.9412 41 40 32.9412 40 23C40 13.0588 31.9412 5 22 5ZM28.9225 25.3081C28.9225 25.3081 30.5144 26.8794 30.9062 27.6087C30.9175 27.6237 30.9231 27.6387 30.9269 27.6462C31.0862 27.9144 31.1237 28.1225 31.045 28.2781C30.9137 28.5369 30.4637 28.6644 30.31 28.6756H27.4975C27.3025 28.6756 26.8937 28.625 26.3987 28.2837C26.0181 28.0175 25.6431 27.5806 25.2775 27.155C24.7319 26.5212 24.2594 25.9738 23.7831 25.9738C23.7226 25.9736 23.6625 25.9831 23.605 26.0019C23.245 26.1181 22.7838 26.6319 22.7838 28.0006C22.7838 28.4281 22.4462 28.6737 22.2081 28.6737H20.92C20.4812 28.6737 18.1956 28.52 16.1706 26.3844C13.6919 23.7687 11.4606 18.5225 11.4419 18.4737C11.3012 18.1344 11.5919 17.9525 11.9087 17.9525H14.7494C15.1281 17.9525 15.2519 18.1831 15.3381 18.3875C15.4394 18.6256 15.8106 19.5725 16.42 20.6375C17.4081 22.3737 18.0138 23.0787 18.4994 23.0787C18.5904 23.0777 18.6799 23.0545 18.76 23.0112C19.3937 22.6587 19.2756 20.3994 19.2475 19.9306C19.2475 19.8425 19.2456 18.92 18.9212 18.4775C18.6887 18.1569 18.2931 18.035 18.0531 17.99C18.1503 17.856 18.2782 17.7473 18.4262 17.6731C18.8612 17.4556 19.645 17.4237 20.4231 17.4237H20.8563C21.7 17.435 21.9175 17.4894 22.2231 17.5662C22.8419 17.7144 22.855 18.1137 22.8006 19.4806C22.7838 19.8687 22.7669 20.3075 22.7669 20.825C22.7669 20.9375 22.7612 21.0575 22.7612 21.185C22.7425 21.8806 22.72 22.67 23.2112 22.9944C23.2753 23.0346 23.3494 23.056 23.425 23.0562C23.5956 23.0562 24.1094 23.0562 25.5006 20.6694C25.9297 19.9011 26.3025 19.1028 26.6162 18.2806C26.6444 18.2319 26.7269 18.0819 26.8244 18.0237C26.8963 17.9871 26.9761 17.9684 27.0569 17.9694H30.3962C30.76 17.9694 31.0094 18.0237 31.0562 18.1644C31.1387 18.3875 31.0412 19.0681 29.5169 21.1325L28.8362 22.0306C27.4544 23.8419 27.4544 23.9338 28.9225 25.3081Z" fill="#00262F"/>
</svg>
